<svg width="187" height="117" viewBox="0 0 187 117" fill="none" xmlns="http://www.w3.org/2000/svg">
<path d="M53.4927 98.0403C51.2053 98.0432 48.9966 97.2965 47.2874 95.9424L0 58.4958L49.9134 18.968C51.7739 17.5502 54.1846 16.8394 56.6272 16.9885C59.0699 17.1376 61.3493 18.1347 62.9753 19.7653C64.6012 21.396 65.444 23.5299 65.3222 25.7083C65.2004 27.8867 64.1238 29.9355 62.324 31.4141L28.1294 58.4958L59.698 83.4879C61.1162 84.609 62.1181 86.0878 62.5707 87.7281C63.0233 89.3684 62.905 91.0925 62.2317 92.6715C61.5584 94.2505 60.3619 95.6097 58.801 96.5686C57.2401 97.5275 55.3887 98.0408 53.4927 98.0403V98.0403ZM137.087 98.0236L187 58.4958L139.713 21.0493C137.86 19.5832 135.429 18.8328 132.956 18.9632C130.482 19.0935 128.167 20.094 126.522 21.7445C124.876 23.3949 124.034 25.5602 124.18 27.7639C124.326 29.9676 125.449 32.0293 127.302 33.4954L158.871 58.4958L124.676 85.5692C122.822 87.0353 121.698 89.0974 121.551 91.3019C121.403 93.5065 122.245 95.6728 123.891 97.3243C125.537 98.9759 127.852 99.9774 130.326 100.109C132.801 100.24 135.233 99.4897 137.087 98.0236V98.0236ZM93.3692 109.82L112.06 9.91858C112.299 8.82677 112.29 7.70335 112.033 6.6147C111.777 5.52605 111.278 4.49423 110.566 3.58021C109.854 2.66619 108.944 1.8885 107.89 1.29307C106.835 0.697642 105.657 0.296553 104.425 0.113498C103.193 -0.069557 101.933 -0.0308674 100.719 0.227283C99.5039 0.485433 98.3597 0.957809 97.3535 1.61651C96.3472 2.2752 95.4994 3.10686 94.86 4.06236C94.2206 5.01785 93.8027 6.07781 93.6308 7.17961L74.9402 107.081C74.7012 108.173 74.7102 109.297 74.9668 110.385C75.2233 111.474 75.7222 112.506 76.4339 113.42C77.1456 114.334 78.0557 115.112 79.1104 115.707C80.1652 116.302 81.3432 116.703 82.5749 116.887C83.8065 117.07 85.0669 117.031 86.2815 116.773C87.4961 116.515 88.6403 116.042 89.6466 115.383C90.6528 114.725 91.5007 113.893 92.14 112.938C92.7794 111.982 93.1974 110.922 93.3692 109.82V109.82Z" fill="#149ddd"/>
</svg>

